<svg xmlns="http://www.w3.org/2000/svg" viewBox="0 0 47.96 42.58"><defs><style>.cls-1{fill:#336497;}</style></defs><title>Asset 4</title><g id="Layer_2" data-name="Layer 2"><g id="services"><path class="cls-1" d="M21.58,29.08A5,5,0,0,0,20,28.35h0V25.49a2,2,0,0,1,.78.34,1.11,1.11,0,0,1,.33.4,1.17,1.17,0,0,1,.11.52.76.76,0,1,0,1.51,0,2.72,2.72,0,0,0-.26-1.17,2.76,2.76,0,0,0-1.31-1.28,4.14,4.14,0,0,0-1.16-.35v-.51a.81.81,0,1,0-1.62,0v.48a3.79,3.79,0,0,0-.83.21A2.87,2.87,0,0,0,16,25.28a2.79,2.79,0,0,0-.42,1.48A2.51,2.51,0,0,0,16,28.08a2.47,2.47,0,0,0,.76.77,5.35,5.35,0,0,0,1.58.64v3.11a1.8,1.8,0,0,1-.76-.35,1.18,1.18,0,0,1-.42-.94.75.75,0,1,0-1.51,0,2.72,2.72,0,0,0,1,2.1,3.39,3.39,0,0,0,1.74.74v.6a.81.81,0,1,0,1.62,0v-.62a3.88,3.88,0,0,0,1.52-.51,2.52,2.52,0,0,0,.89-.94,3.09,3.09,0,0,0,0-2.76,2.61,2.61,0,0,0-.74-.84Zm-3.27-1.16a3.75,3.75,0,0,1-.51-.19,1.31,1.31,0,0,1-.51-.38.94.94,0,0,1-.16-.59,1.27,1.27,0,0,1,.35-.88,1.47,1.47,0,0,1,.53-.34l.3-.09ZM21,32a1.17,1.17,0,0,1-.66.52,2.78,2.78,0,0,1-.42.11V29.93a3.26,3.26,0,0,1,.51.21,1.35,1.35,0,0,1,.52.44,1.27,1.27,0,0,1,.18.73A1.34,1.34,0,0,1,21,32Zm0,0"/><path class="cls-1" d="M46.83,16.67,16.4.26a2.13,2.13,0,0,0-1-.26,2.16,2.16,0,0,0-1.91,1.14L4.8,17.37a2,2,0,0,0-.16.42H2.16A2.17,2.17,0,0,0,0,20V38.24a2.17,2.17,0,0,0,2.16,2.17H30.8a6.48,6.48,0,0,0,10.1-8.08L47.71,19.6a2.18,2.18,0,0,0-.88-2.94ZM2.16,38.79a.55.55,0,0,1-.54-.54V20a.55.55,0,0,1,.54-.54H23.25a4.85,4.85,0,0,0,9.62,0h3.76a.55.55,0,0,1,.54.54v9.82a6.49,6.49,0,0,0-7.44,9Zm22.66-20A3.24,3.24,0,1,1,28.06,22a3.25,3.25,0,0,1-3.24-3.25ZM35.61,41a4.88,4.88,0,1,1,4.86-4.88A4.87,4.87,0,0,1,35.61,41ZM46.28,18.83,39.74,31.06a6.52,6.52,0,0,0-.95-.65V20a2.17,2.17,0,0,0-2.16-2.17H32.82a4.85,4.85,0,0,0-9.51,0H6.41L14.91,1.91a.55.55,0,0,1,.48-.28.52.52,0,0,1,.25.06L46.06,18.1a.55.55,0,0,1,.22.73Zm0,0"/></g></g></svg>