<svg xmlns="http://www.w3.org/2000/svg" viewBox="0 0 48 40.37"><defs><style>.cls-1{fill:#336497;}</style></defs><title>Asset 6</title><g id="Layer_2" data-name="Layer 2"><g id="services"><path class="cls-1" d="M27.08.84a1.4,1.4,0,0,0-.95-.43h0L18.27,0a.88.88,0,1,0-.09,1.75l6,.32-18,12.71a.88.88,0,0,0,1,1.43L25.45,3.33l-1,6.19a.88.88,0,0,0,1.73.29L27.44,2h0a1.37,1.37,0,0,0,0-.24,1.39,1.39,0,0,0-.38-1Zm0,0"/><path class="cls-1" d="M6.15,29.83H2A1.46,1.46,0,0,0,.59,31.3v4.1A1.46,1.46,0,0,0,2,36.86h4.1a1.46,1.46,0,0,0,1.46-1.46V31.3a1.46,1.46,0,0,0-1.46-1.46ZM5.85,35.1H2.34V31.59H5.85Zm0,0"/><path class="cls-1" d="M16.1,24H12a1.46,1.46,0,0,0-1.46,1.46v9.95A1.46,1.46,0,0,0,12,36.86h4.1a1.46,1.46,0,0,0,1.46-1.46V25.45A1.46,1.46,0,0,0,16.1,24ZM15.8,35.1H12.29V25.74H15.8Zm0,0"/><path class="cls-1" d="M26,17.55H22A1.46,1.46,0,0,0,20.49,19V35.39A1.46,1.46,0,0,0,22,36.85H26a1.46,1.46,0,0,0,1.46-1.46V19A1.46,1.46,0,0,0,26,17.55ZM25.76,35.1H22.24V19.3h3.51Zm0,0"/><path class="cls-1" d="M36,10.52H31.9A1.46,1.46,0,0,0,30.44,12v23.4a1.46,1.46,0,0,0,1.46,1.46H36a1.46,1.46,0,0,0,1.46-1.46V12A1.46,1.46,0,0,0,36,10.52ZM35.71,35.1H32.19V19.3h3.51Zm0-17.55H32.19V12.28h3.51Zm0,0"/><path class="cls-1" d="M46,.58h-4.1A1.46,1.46,0,0,0,40.39,2V35.39a1.46,1.46,0,0,0,1.46,1.46H46a1.46,1.46,0,0,0,1.46-1.46V2A1.46,1.46,0,0,0,46,.58ZM45.66,35.1H42.15V12.28h3.51Zm0-24.57H42.15V2.33h3.51Zm0,0"/><path class="cls-1" d="M47.12,38.61H.88a.88.88,0,1,0,0,1.76H47.12a.88.88,0,1,0,0-1.76Zm0,0"/></g></g></svg>