<svg xmlns="http://www.w3.org/2000/svg" viewBox="0 0 48 39.42"><defs><style>.cls-1{fill:#336497;}</style></defs><title>Asset 3</title><g id="Layer_2" data-name="Layer 2"><g id="services"><path class="cls-1" d="M44.39,20.79a3.54,3.54,0,0,0-1.45.32,3.56,3.56,0,0,0-4.45-1l0,0L37,21a3.56,3.56,0,0,0-4.38-.9l-.06,0-5.64,3.46-4.06-1.18c-1.44-.41-2.83-.79-3.94-1.07-.56-.14-1-.26-1.44-.34l-.53-.1a2.93,2.93,0,0,0-.44,0l-.33,0c-.42.05-1,.18-1.7.34-1.42.33-3.24.82-4.25,1.09v-1.7A2.15,2.15,0,0,0,8,18.51H2.15A2.15,2.15,0,0,0,0,20.65V37.28a2.15,2.15,0,0,0,2.15,2.15H8a2.15,2.15,0,0,0,2.15-2.15V36c1.27.28,4.1.89,7.08,1.5,2,.41,4.1.83,5.82,1.14.86.16,1.63.29,2.26.38a11.73,11.73,0,0,0,1.47.15,3.11,3.11,0,0,0,.83-.13,11.54,11.54,0,0,0,1.84-.74,92.2,92.2,0,0,0,9.19-5.59C42,30.5,45,28.34,46.53,27.3A3.5,3.5,0,0,0,48,24.4a3.61,3.61,0,0,0-3.61-3.61ZM8.58,37.28a.54.54,0,0,1-.54.54H2.15a.54.54,0,0,1-.54-.54V20.65a.54.54,0,0,1,.54-.54H8a.54.54,0,0,1,.54.54Zm37-11.3c-1.85,1.27-6,4.19-10,6.79-2,1.3-4,2.52-5.58,3.4a22.68,22.68,0,0,1-2.1,1,6.55,6.55,0,0,1-.74.26,1.7,1.7,0,0,1-.4.07,10.74,10.74,0,0,1-1.24-.13c-2.11-.31-6.07-1.1-9.47-1.81l-4.42-.94-1.5-.32V24l.61-.17c.85-.23,2.14-.58,3.3-.86l1.56-.36.55-.1.25,0,.2,0c.44.07,1.35.28,2.46.57,3.34.87,8.61,2.45,10.74,3.1a4.81,4.81,0,0,1,1.84,1,2.13,2.13,0,0,1,.5.65,1.83,1.83,0,0,1,.17.8,2.27,2.27,0,0,1-2.26,2.28L28,30.68,21,29.77a.8.8,0,1,0-.21,1.6l7.11.91,2.2.22h0A3.89,3.89,0,0,0,34,28.6a3.45,3.45,0,0,0-.33-1.49,4,4,0,0,0-1.41-1.58,7,7,0,0,0-1.91-.88L29,24.23l4.37-2.67a1.94,1.94,0,0,1,2.22.31l-2.16,1.28a.8.8,0,0,0,.82,1.38l5-3a1.94,1.94,0,0,1,2.3.38l-5.83,3.46a.8.8,0,0,0,.82,1.38L42.82,23,43,23a.8.8,0,0,0,.32-.24l.2-.12a2,2,0,0,1,.88-.22,2,2,0,0,1,2,2A1.91,1.91,0,0,1,45.62,26Zm0,0"/><path class="cls-1" d="M29.07,9.16a7.15,7.15,0,0,0-2.34-1L26.4,8V3.13a3.73,3.73,0,0,1,1.75.66,2,2,0,0,1,.59.72,2.11,2.11,0,0,1,.2.92.8.8,0,0,0,1.61,0,3.72,3.72,0,0,0-.35-1.61,3.81,3.81,0,0,0-1.81-1.77,6.15,6.15,0,0,0-2-.54V.8A.8.8,0,1,0,24.8.8v.66a5.6,5.6,0,0,0-1.57.34,4,4,0,0,0-2,1.59,3.84,3.84,0,0,0-.59,2,3.4,3.4,0,0,0,.48,1.81,3.37,3.37,0,0,0,1,1,7.86,7.86,0,0,0,2.31.92l.32.08v5.28A3.29,3.29,0,0,1,23,13.89a2.09,2.09,0,0,1-.75-1.66.8.8,0,0,0-1.61,0A3.71,3.71,0,0,0,22,15.12a4.93,4.93,0,0,0,2.82,1.08v.7a.8.8,0,0,0,1.61,0v-.73a5.77,5.77,0,0,0,2.49-.77,3.43,3.43,0,0,0,1.22-1.28,3.91,3.91,0,0,0,.44-1.88,4,4,0,0,0-.46-1.93,3.57,3.57,0,0,0-1-1.15ZM24.79,7.63a5.68,5.68,0,0,1-1.87-.77,1.61,1.61,0,0,1-.49-.56,1.89,1.89,0,0,1-.18-.87,2.22,2.22,0,0,1,.63-1.54,2.5,2.5,0,0,1,.91-.58,4,4,0,0,1,1-.22Zm3.9,5.73a1.75,1.75,0,0,1-.45.54,3,3,0,0,1-1.17.54,5.8,5.8,0,0,1-.67.12V9.71a6.81,6.81,0,0,1,1.31.49,2.35,2.35,0,0,1,.9.76,2.23,2.23,0,0,1,.33,1.27,2.32,2.32,0,0,1-.25,1.12Zm0,0"/></g></g></svg>