<svg xmlns="http://www.w3.org/2000/svg" viewBox="0 0 36.24 48"><defs><style>.cls-1{fill:#336497;}</style></defs><title>Asset 7</title><g id="Layer_2" data-name="Layer 2"><g id="services"><path class="cls-1" d="M18.12,0A18.14,18.14,0,0,0,0,18.12c0,9.41,15,26.39,16.7,28.3L18.12,48l1.42-1.58c1.71-1.9,16.7-18.89,16.7-28.3A18.14,18.14,0,0,0,18.12,0Zm0,45.14S1.91,27.07,1.91,18.12a16.21,16.21,0,0,1,32.43,0c0,9-16.21,27-16.21,27Zm0,0"/><path class="cls-1" d="M21.67,18a7.47,7.47,0,0,0-2.44-1.08L19,16.87v-4.8a3.59,3.59,0,0,1,1.59.63,1.91,1.91,0,0,1,.57.69,2,2,0,0,1,.19.89,1,1,0,0,0,1.91,0,4,4,0,0,0-.38-1.71,4,4,0,0,0-1.92-1.87,6.38,6.38,0,0,0-2-.55V9.53a1,1,0,1,0-1.91,0v.57a5.85,5.85,0,0,0-1.53.34,4.2,4.2,0,0,0-2.11,1.69,4.08,4.08,0,0,0-.62,2.16,3.62,3.62,0,0,0,.51,1.93,3.58,3.58,0,0,0,1.11,1.12,8.18,8.18,0,0,0,2.41,1l.23.06v5.19a3.15,3.15,0,0,1-1.63-.66,2,2,0,0,1-.73-1.61,1,1,0,1,0-1.91,0h0a4,4,0,0,0,1.4,3.06,5.15,5.15,0,0,0,2.86,1.12v.6a1,1,0,1,0,1.91,0v-.63a6,6,0,0,0,2.5-.79,3.66,3.66,0,0,0,1.3-1.36,4.53,4.53,0,0,0,0-4A3.79,3.79,0,0,0,21.67,18Zm-4.6-1.64a5.4,5.4,0,0,1-1.72-.73,1.52,1.52,0,0,1-.46-.53,1.8,1.8,0,0,1-.17-.84,2.15,2.15,0,0,1,.61-1.49,2.45,2.45,0,0,1,.89-.57,3.78,3.78,0,0,1,.85-.2Zm4,6a1.65,1.65,0,0,1-.43.51,3,3,0,0,1-1.16.53l-.53.1V18.85a6.31,6.31,0,0,1,1.16.45A2.3,2.3,0,0,1,21,20a2.16,2.16,0,0,1,.32,1.24,2.23,2.23,0,0,1-.24,1.09Zm0,0"/></g></g></svg>