<svg xmlns="http://www.w3.org/2000/svg" viewBox="0 0 48 31.64"><defs><style>.cls-1{fill:#336497;}</style></defs><title>Asset 2</title><g id="Layer_2" data-name="Layer 2"><g id="services"><path class="cls-1" d="M48,8.17a3.38,3.38,0,0,0-.69-2.08l-3.8-4.87A3.27,3.27,0,0,0,40.93,0a3.17,3.17,0,0,0-1.68.47L35.54,2.78a3.38,3.38,0,0,1-1.7.42,3.09,3.09,0,0,1-1.31-.26L28.9,1.18A4.38,4.38,0,0,0,27,.78a4.72,4.72,0,0,0-2.67.77l-.42.3-1.44-.72A5.43,5.43,0,0,0,20.11.64a5.66,5.66,0,0,0-2.17.4L15.46,2.09a4.53,4.53,0,0,1-1.68.29,4.52,4.52,0,0,1-1.68-.29L9.63,1A3.61,3.61,0,0,0,8.22.76a4.32,4.32,0,0,0-1.61.32A3.66,3.66,0,0,0,5.25,2l-4.51,5A2.93,2.93,0,0,0,1,11.24l4.2,3.59-2,2.08a3,3,0,0,0,.1,4.21l.4.38a3,3,0,0,0,1.32.71,2.94,2.94,0,0,0,.55,3.57h0l.41.39a3,3,0,0,0,3.23.58,2.94,2.94,0,0,0,.83,1.44l.41.39a3,3,0,0,0,3.72.32A3,3,0,0,0,15,30.18l.41.39a3,3,0,0,0,4.23-.1l1.76-1.84,2.39,2.22A3,3,0,0,0,28,30.69l.38-.41a3,3,0,0,0,.67-1.21l.93.86a3,3,0,0,0,4.23-.16l.38-.41a2.94,2.94,0,0,0,.76-1.64,2.93,2.93,0,0,0,2.94-.84l.38-.41a3,3,0,0,0,.8-2,3,3,0,0,0-.08-.67,3,3,0,0,0,1.79-.91l.38-.41a3,3,0,0,0-.16-4.21l-.71-.66,6.45-7.14A3.4,3.4,0,0,0,48,8.17ZM5.81,20.7a1.36,1.36,0,0,1-.94-.37l-.41-.38a1.35,1.35,0,0,1,0-1.91l4.09-4.26a1.37,1.37,0,0,1,1.92,0l.4.38a2.56,2.56,0,0,1,.42,1,1.34,1.34,0,0,1-.24.76L6.6,20.45a1.38,1.38,0,0,1-.79.25ZM9.08,25a1.37,1.37,0,0,1-1.92,0l-.41-.39h0a1.36,1.36,0,0,1,0-1.91L12.19,17a1.36,1.36,0,0,1,1.88,0l.41.39a1.35,1.35,0,0,1,0,1.91Zm4.46,2.41a1.37,1.37,0,0,1-1.92,0L11.21,27a1.34,1.34,0,0,1-.12-1.82l3.79-4a1.36,1.36,0,0,1,1.85,0l.41.39a1.35,1.35,0,0,1,0,1.91Zm7.21-.42-2.3,2.4a1.37,1.37,0,0,1-1.92,0L16.12,29a1.35,1.35,0,0,1,0-1.91l2.3-2.4a1.37,1.37,0,0,1,1.92,0l.41.39a1.35,1.35,0,0,1,0,1.91Zm20-6.51a1.34,1.34,0,0,1-.36.92l-.38.41a1.37,1.37,0,0,1-1.92.07l-6.43-5.94-1.11,1.19,6.88,6.37a1.35,1.35,0,0,1,.07,1.91l-.38.41a1.37,1.37,0,0,1-1.92.07L28.76,19.9l-1.11,1.19,5.7,5.27a1.35,1.35,0,0,1,.06,1.89l-.38.41a1.37,1.37,0,0,1-1.92.07l-5.69-5.26h0L24.3,24.67h0l0,0,2.85,2.63a1.34,1.34,0,0,1,0,1.85l-.38.41a1.37,1.37,0,0,1-1.92.07l-2.48-2.3a2.93,2.93,0,0,0-.59-3.5l-.41-.39a3,3,0,0,0-2.06-.82l-.17,0s0,0,0,0a5.68,5.68,0,0,0-.92-2.16l-.41-.39a3,3,0,0,0-1.51-.77,2.93,2.93,0,0,0-.75-3.14l-.41-.39A3,3,0,0,0,13.14,15l-.26,0A3,3,0,0,0,12,12.93h0l-.4-.38a3,3,0,0,0-4.23.1l-1,1L2.1,10A1.31,1.31,0,0,1,2,8.14l4.51-5a2.06,2.06,0,0,1,.75-.51,2.68,2.68,0,0,1,1-.19A2,2,0,0,1,9,2.53l2.47,1.06A6.09,6.09,0,0,0,13.79,4a6.09,6.09,0,0,0,2.32-.42l2.47-1.06a4.05,4.05,0,0,1,1.53-.27,3.88,3.88,0,0,1,1.63.31l.66.33L19.88,4.68a2.91,2.91,0,0,0-.66,4.14h0l.33.45a3.26,3.26,0,0,0,2.61,1.28,3.17,3.17,0,0,0,1.63-.44l1.51-.91a2.48,2.48,0,0,1,1.25-.3A2.61,2.61,0,0,1,28,9.3l4.17,3A41.7,41.7,0,0,1,35.47,15l4.83,4.47a1.34,1.34,0,0,1,.43,1Zm5.2-11.07-6.44,7.12-2.92-2.7A43,43,0,0,0,33.15,11L29,8a4.22,4.22,0,0,0-2.43-.72,4.1,4.1,0,0,0-2.1.54l-1.51.91a1.54,1.54,0,0,1-.79.21,1.63,1.63,0,0,1-1.3-.62l-.33-.45h0A1.29,1.29,0,0,1,20.82,6l4.46-3.13A3.14,3.14,0,0,1,27,2.4a2.76,2.76,0,0,1,1.18.24L31.82,4.4a4.69,4.69,0,0,0,2,.42,5,5,0,0,0,2.57-.66l3.71-2.31a1.54,1.54,0,0,1,.82-.22,1.64,1.64,0,0,1,1.29.6L46,7.09a1.77,1.77,0,0,1,.35,1.08,1.8,1.8,0,0,1-.43,1.2Zm0,0"/></g></g></svg>