<svg xmlns="http://www.w3.org/2000/svg" viewBox="0 0 46.76 48"><defs><style>.cls-1{fill:#336497;}</style></defs><title>Asset 5</title><g id="Layer_2" data-name="Layer 2"><g id="services"><path class="cls-1" d="M46.76,24.63A23.15,23.15,0,0,0,24.28,3.11V.85a.85.85,0,0,0-1.69,0V3.11A23.15,23.15,0,0,0,0,24.63a.85.85,0,0,0,1.57.49A6.7,6.7,0,0,1,7.33,21.9a6.68,6.68,0,0,1,6.11,3.87.85.85,0,0,0,1.54,0,9.17,9.17,0,0,1,7.61-5.3v21.6a4.24,4.24,0,0,1-8.47,0,.85.85,0,1,0-1.69,0,5.93,5.93,0,0,0,11.86,0V20.48a9.17,9.17,0,0,1,7.5,5.29.85.85,0,0,0,1.54,0,6.76,6.76,0,0,1,11.86-.66.85.85,0,0,0,1.57-.49Zm-32-10.69a44.35,44.35,0,0,0-1.34,8.86A8.48,8.48,0,0,0,2,22.07,21.46,21.46,0,0,1,19,5.21a11.4,11.4,0,0,0-1,1.17,23.09,23.09,0,0,0-3.31,7.57Zm8.62,4.8a11,11,0,0,0-8.24,3.7,36.43,36.43,0,0,1,2.69-12.21,13.09,13.09,0,0,1,2.67-4.09,5.42,5.42,0,0,1,1.44-1,3.25,3.25,0,0,1,2.86,0,6.83,6.83,0,0,1,2.5,2.25,21.44,21.44,0,0,1,3,7,42.26,42.26,0,0,1,1.26,8.06,11,11,0,0,0-8.23-3.69Zm16.05,1.47a8.42,8.42,0,0,0-6.1,2.59A38.45,38.45,0,0,0,30.47,9.54a15.24,15.24,0,0,0-2.76-4.33,21.45,21.45,0,0,1,17,16.86,8.44,8.44,0,0,0-5.3-1.86Zm0,0"/></g></g></svg>