<?xml version="1.0" encoding="utf-8"?>
<!-- Generator: Adobe Illustrator 21.1.0, SVG Export Plug-In . SVG Version: 6.00 Build 0)  -->
<svg version="1.1" id="Layer_1" xmlns="http://www.w3.org/2000/svg" xmlns:xlink="http://www.w3.org/1999/xlink" x="0px" y="0px"
	 viewBox="0 0 1440 900" style="enable-background:new 0 0 1440 900;" xml:space="preserve">
<style type="text/css">
	.st0{opacity:0.15;clip-path:url(#SVGID_2_);}
	.st1{fill:none;stroke:#FFFFFF;stroke-width:4.2436;stroke-miterlimit:10;}
</style>
<g>
	<defs>
		<rect id="SVGID_1_" width="1440" height="900"/>
	</defs>
	<clipPath id="SVGID_2_">
		<use xlink:href="#SVGID_1_"  style="overflow:visible;"/>
	</clipPath>
	<g class="st0">
		<path class="st1" d="M1031.9,201.5c-57.7,0-113.8,7.1-167.5,20.1c144.2,69.3,283.7,189.1,392.2,349.4
			c247.1,365.1,239.4,801.9-17.2,975.6c-50.5,34.2-107,55.5-166.9,65.1c-38.7,7.7-82.6,8.5-130.4,3.1c-37.7-3.9-76-11.7-114.4-23.3
			c-4.5-1.3-8.9-2.4-13.5-3.8c68.6,22.1,141.7,34.1,217.6,34.1c392.2,0,710.1-317.9,710.1-710.1S1424.1,201.5,1031.9,201.5z"/>
		<path class="st1" d="M864.4,221.6c-184.2-88.6-375.9-94.7-519.8,2.8c-73.9,50-127,121.8-159.4,207.4c78.9,7.6,168.8,33.2,263.5,75
			C546.2,366.5,693.2,263,864.4,221.6z"/>
		<path class="st1" d="M448.6,506.9c116.8,51.7,240.8,128.2,359.8,226.4c347.3,286.4,521.6,648.7,389.2,809.2
			c-29.8,36.1-72.7,58.9-125.1,69.3c59.9-9.6,116.4-30.9,166.9-65.1c256.6-173.7,264.3-610.5,17.2-975.6
			c-108.5-160.3-248.1-280.1-392.2-349.4C693.2,263,546.2,366.5,448.6,506.9z"/>
		<path class="st1" d="M327.4,1199.9c-176-260-222.6-556.3-142.3-768.1C77.4,421.4-9.8,444.4-60,505.3
			c-132.3,160.5,41.9,522.8,389.2,809.2c162.8,134.3,334.8,228,485.1,273.2c-33.5-10.8-66-24-97.1-39.4
			C573.9,1478.7,435.3,1359.4,327.4,1199.9z"/>
		<path class="st1" d="M327.4,1199.9c107.9,159.4,246.5,278.8,389.8,348.3c-234.3-116-395.4-357.4-395.4-636.6
			c0-150.5,46.9-289.9,126.8-404.8C354,465,264,439.4,185.1,431.8C104.8,643.6,151.4,939.9,327.4,1199.9z"/>
		<path class="st1" d="M327.4,1199.9c107.9,159.4,246.5,278.8,389.8,348.3c-234.3-116-395.4-357.4-395.4-636.6
			c0-150.5,46.9-289.9,126.8-404.8C354,465,264,439.4,185.1,431.8C104.8,643.6,151.4,939.9,327.4,1199.9z"/>
		<path class="st1" d="M1197.7,1542.4c132.3-160.5-41.9-522.8-389.2-809.2c-119.1-98.2-243-174.7-359.8-226.4
			c-79.9,114.8-126.8,254.3-126.8,404.8c0,279.1,161.1,520.5,395.4,636.6c36.7,17.8,73.7,32.1,110.5,43.2
			c40,11.3,78.3,19.1,114.4,23.3c44.6,4.6,88.4,3.7,130.4-3.1C1125,1601.3,1167.9,1578.5,1197.7,1542.4z"/>
		<path class="st1" d="M1197.7,1542.4c132.3-160.5-41.9-522.8-389.2-809.2c-119.1-98.2-243-174.7-359.8-226.4
			c-79.9,114.8-126.8,254.3-126.8,404.8c0,279.1,161.1,520.5,395.4,636.6c36.7,17.8,73.7,32.1,110.5,43.2
			c40,11.3,78.3,19.1,114.4,23.3c44.6,4.6,88.4,3.7,130.4-3.1C1125,1601.3,1167.9,1578.5,1197.7,1542.4z"/>
	</g>
</g>
</svg>
