<svg xmlns="http://www.w3.org/2000/svg" viewBox="0 0 240 51.99"><defs><style>.cls-1{fill:#004a97;}.cls-2{fill:#40b4e5;}.cls-3{fill:#0082ca;}.cls-4,.cls-5,.cls-6{fill:#8db8e9;}.cls-4{opacity:0.4;}.cls-5{opacity:0.7;}</style></defs><title>logo</title><g id="Layer_2" data-name="Layer 2"><g id="header"><path class="cls-1" d="M74,33.07l1.62-1.6a.45.45,0,0,1,.64,0,1.49,1.49,0,0,0,1.21.5c.67,0,1.41-.62,1.41-1.81V18.94a.45.45,0,0,1,.45-.45h2.91a.45.45,0,0,1,.45.45V30.19a4.94,4.94,0,0,1-5.12,5.22,4.57,4.57,0,0,1-3.62-1.74A.5.5,0,0,1,74,33.07Z"/><path class="cls-1" d="M85.48,32.9l1.12-2a.61.61,0,0,1,.81-.14,7.12,7.12,0,0,0,3.38,1.31,1.49,1.49,0,0,0,1.64-1.43c0-1-.83-1.76-2.45-2.41-2-.81-4.62-2.41-4.62-5.27,0-2.36,1.83-4.74,5.5-4.74A8.86,8.86,0,0,1,96,20a.6.6,0,0,1,.14.76l-1.22,1.83c-.17.26-.6.48-.81.31a7.46,7.46,0,0,0-3.41-1.43,1.38,1.38,0,0,0-1.5,1.21c0,.88.71,1.55,2.6,2.31s4.81,2.19,4.81,5.43c0,2.45-2.12,4.93-5.62,4.93a7.56,7.56,0,0,1-5.36-1.83C85.36,33.33,85.28,33.24,85.48,32.9Z"/><path class="cls-1" d="M99.48,18.94a.45.45,0,0,1,.45-.45h9.86a.45.45,0,0,1,.45.45v2.6a.45.45,0,0,1-.45.45h-6.6v3.43h5.43a.47.47,0,0,1,.45.45v2.6a.47.47,0,0,1-.45.45H103.2v5.79a.47.47,0,0,1-.45.45H99.94a.45.45,0,0,1-.45-.45Z"/><path class="cls-1" d="M118.54,18.94a.45.45,0,0,1,.45-.45h9.39a.45.45,0,0,1,.45.45v.69a.45.45,0,0,1-.45.45h-8v6.53h6.84a.47.47,0,0,1,.45.45v.69a.47.47,0,0,1-.45.45h-6.84v6.5a.47.47,0,0,1-.45.45H119a.45.45,0,0,1-.45-.45Z"/><path class="cls-1" d="M132.1,18.94a.47.47,0,0,1,.45-.45h1a.47.47,0,0,1,.45.45V34.71a.47.47,0,0,1-.45.45h-1a.47.47,0,0,1-.45-.45Z"/><path class="cls-1" d="M138.82,18.68a.45.45,0,0,1,.45-.43h.6l10.75,13.39h0V18.94a.45.45,0,0,1,.45-.45h.83a.47.47,0,0,1,.45.45V35a.45.45,0,0,1-.45.43h-.43L140.58,21.75h0v13a.45.45,0,0,1-.45.45h-.83a.47.47,0,0,1-.45-.45Z"/><path class="cls-1" d="M155,34.55l7.24-16a.43.43,0,0,1,.41-.26h.24a.43.43,0,0,1,.41.26l7.2,16a.42.42,0,0,1-.4.62h-1a.44.44,0,0,1-.41-.26L166.93,31h-8.46l-1.74,3.93a.44.44,0,0,1-.4.26h-1A.42.42,0,0,1,155,34.55Zm11.32-5.05c-1.17-2.6-2.31-5.22-3.48-7.81h-.19l-3.48,7.81Z"/><path class="cls-1" d="M173.05,18.68a.45.45,0,0,1,.45-.43h.6l10.75,13.39h0V18.94a.45.45,0,0,1,.45-.45h.83a.47.47,0,0,1,.45.45V35a.45.45,0,0,1-.45.43h-.43L174.82,21.75h0v13a.45.45,0,0,1-.45.45h-.83a.47.47,0,0,1-.45-.45Z"/><path class="cls-1" d="M198.88,18.25a8.38,8.38,0,0,1,5.77,2.22.46.46,0,0,1,0,.67l-.64.64c-.19.24-.38.21-.62,0A7.22,7.22,0,0,0,198.86,20a6.85,6.85,0,0,0,0,13.7,6.93,6.93,0,0,0,4.55-1.79.45.45,0,0,1,.57-.07l.71.64a.45.45,0,0,1,0,.64,8.18,8.18,0,0,1-5.79,2.31,8.58,8.58,0,1,1,0-17.15Z"/><path class="cls-1" d="M208.34,18.94a.47.47,0,0,1,.45-.45h1a.47.47,0,0,1,.45.45V34.71a.47.47,0,0,1-.45.45h-1a.47.47,0,0,1-.45-.45Z"/><path class="cls-1" d="M212.77,34.55l7.24-16a.43.43,0,0,1,.41-.26h.24a.43.43,0,0,1,.41.26l7.2,16a.42.42,0,0,1-.41.62h-1a.44.44,0,0,1-.41-.26L224.73,31h-8.46l-1.74,3.93a.44.44,0,0,1-.4.26h-1A.42.42,0,0,1,212.77,34.55Zm11.32-5.05c-1.17-2.6-2.31-5.22-3.48-7.81h-.19l-3.48,7.81Z"/><path class="cls-1" d="M230.85,18.94a.45.45,0,0,1,.45-.45h.93a.47.47,0,0,1,.45.45V33.57h6.86A.45.45,0,0,1,240,34v.69a.45.45,0,0,1-.45.45H231.3a.45.45,0,0,1-.45-.45Z"/><path class="cls-1" d="M40.23,1.71a25.19,25.19,0,0,0-5.93.71A36.05,36.05,0,0,1,48.19,14.79c8.75,12.93,8.48,28.39-.61,34.54a14.57,14.57,0,0,1-5.91,2.3,15,15,0,0,1-4.62.11A21.92,21.92,0,0,1,33,50.92l-.48-.13a25.14,25.14,0,1,0,7.7-49.08Z"/><path class="cls-2" d="M34.3,2.42C27.78-.71,21-.93,15.9,2.52a15.18,15.18,0,0,0-5.65,7.35,31,31,0,0,1,9.33,2.66A25.16,25.16,0,0,1,34.3,2.42Z"/><path class="cls-3" d="M19.58,12.52a56,56,0,0,1,12.74,8c12.3,10.14,18.47,23,13.78,28.65a7.42,7.42,0,0,1-4.43,2.45,14.57,14.57,0,0,0,5.91-2.3c9.09-6.15,9.36-21.61.61-34.54A36.05,36.05,0,0,0,34.3,2.42,25.16,25.16,0,0,0,19.58,12.52Z"/><path class="cls-4" d="M15.29,37.06c-6.23-9.21-7.88-19.7-5-27.2-3.82-.37-6.9.45-8.68,2.6C-3.12,18.15,3.05,31,15.35,41.12a51.36,51.36,0,0,0,17.18,9.67,25,25,0,0,1-3.44-1.4A36.1,36.1,0,0,1,15.29,37.06Z"/><path class="cls-5" d="M15.29,37.06a36.1,36.1,0,0,0,13.8,12.33,25.14,25.14,0,0,1-9.51-36.87,31,31,0,0,0-9.33-2.66C7.4,17.36,9.06,27.85,15.29,37.06Z"/><path class="cls-6" d="M46.1,49.19c4.69-5.68-1.48-18.51-13.78-28.65a56,56,0,0,0-12.74-8,25.14,25.14,0,0,0,9.51,36.87A26.39,26.39,0,0,0,33,50.92a25.7,25.7,0,0,0,4.05.82,17.68,17.68,0,0,0,4.62-.11A7.42,7.42,0,0,0,46.1,49.19Z"/></g></g></svg>