<svg xmlns="http://www.w3.org/2000/svg" viewBox="0 0 227 49.59"><defs><style>.cls-1{fill:#fff;}</style></defs><title>logo-line</title><g id="Layer_2" data-name="Layer 2"><g id="footer"><path class="cls-1" d="M70,31.48,71.52,30a.43.43,0,0,1,.61,0,1.41,1.41,0,0,0,1.15.47c.63,0,1.33-.59,1.33-1.71V18.11a.43.43,0,0,1,.43-.43h2.75a.43.43,0,0,1,.43.43V28.75a4.67,4.67,0,0,1-4.85,4.94A4.32,4.32,0,0,1,69.94,32,.47.47,0,0,1,70,31.48Z"/><path class="cls-1" d="M80.85,31.32l1.06-1.87a.58.58,0,0,1,.77-.14,6.73,6.73,0,0,0,3.2,1.24,1.41,1.41,0,0,0,1.55-1.35c0-.95-.79-1.67-2.32-2.28-1.94-.77-4.37-2.28-4.37-5,0-2.23,1.74-4.48,5.21-4.48a8.38,8.38,0,0,1,4.82,1.69.57.57,0,0,1,.14.72l-1.15,1.74c-.16.25-.56.45-.77.29a7.06,7.06,0,0,0-3.22-1.35,1.31,1.31,0,0,0-1.42,1.15c0,.83.68,1.46,2.46,2.19S91.35,26,91.35,29c0,2.32-2,4.67-5.32,4.67A7.16,7.16,0,0,1,81,32C80.73,31.72,80.67,31.63,80.85,31.32Z"/><path class="cls-1" d="M94.1,18.11a.43.43,0,0,1,.43-.43h9.33a.43.43,0,0,1,.43.43v2.46a.43.43,0,0,1-.43.43H97.61v3.25h5.14a.44.44,0,0,1,.43.43v2.46a.44.44,0,0,1-.43.43H97.61V33a.44.44,0,0,1-.43.43H94.52A.43.43,0,0,1,94.1,33Z"/><path class="cls-1" d="M112.12,18.11a.43.43,0,0,1,.43-.43h8.88a.43.43,0,0,1,.43.43v.65a.43.43,0,0,1-.43.43h-7.57v6.17h6.47a.44.44,0,0,1,.43.43v.65a.44.44,0,0,1-.43.43h-6.47V33a.44.44,0,0,1-.43.43h-.88a.43.43,0,0,1-.43-.43Z"/><path class="cls-1" d="M124.94,18.11a.44.44,0,0,1,.43-.43h.9a.44.44,0,0,1,.43.43V33a.44.44,0,0,1-.43.43h-.9a.44.44,0,0,1-.43-.43Z"/><path class="cls-1" d="M131.3,17.87a.42.42,0,0,1,.43-.41h.56l10.16,12.66h0v-12a.43.43,0,0,1,.43-.43h.79a.44.44,0,0,1,.43.43V33.28a.42.42,0,0,1-.43.41h-.41L133,20.77h0V33a.43.43,0,0,1-.43.43h-.79a.44.44,0,0,1-.43-.43Z"/><path class="cls-1" d="M146.58,32.87l6.85-15.17a.4.4,0,0,1,.38-.25H154a.41.41,0,0,1,.38.25l6.81,15.17a.4.4,0,0,1-.38.59h-.9a.41.41,0,0,1-.38-.25l-1.67-3.72h-8l-1.65,3.72a.41.41,0,0,1-.38.25H147A.4.4,0,0,1,146.58,32.87Zm10.7-4.78c-1.1-2.46-2.19-4.94-3.29-7.39h-.18l-3.29,7.39Z"/><path class="cls-1" d="M163.68,17.87a.42.42,0,0,1,.43-.41h.56l10.16,12.66h0v-12a.43.43,0,0,1,.43-.43h.79a.44.44,0,0,1,.43.43V33.28a.42.42,0,0,1-.43.41h-.41L165.35,20.77h0V33a.43.43,0,0,1-.43.43h-.79a.44.44,0,0,1-.43-.43Z"/><path class="cls-1" d="M188.11,17.46a7.92,7.92,0,0,1,5.45,2.1.44.44,0,0,1,0,.63l-.61.61c-.18.23-.36.2-.59,0a6.83,6.83,0,0,0-4.3-1.69,6.48,6.48,0,0,0,0,13,6.56,6.56,0,0,0,4.3-1.69.43.43,0,0,1,.54-.07l.68.61a.43.43,0,0,1,0,.61,7.74,7.74,0,0,1-5.48,2.19,8.11,8.11,0,1,1,0-16.23Z"/><path class="cls-1" d="M197.05,18.11a.44.44,0,0,1,.43-.43h.9a.44.44,0,0,1,.43.43V33a.44.44,0,0,1-.43.43h-.9a.44.44,0,0,1-.43-.43Z"/><path class="cls-1" d="M201.24,32.87l6.85-15.17a.41.41,0,0,1,.38-.25h.23a.41.41,0,0,1,.38.25l6.81,15.17a.4.4,0,0,1-.38.59h-.9a.41.41,0,0,1-.38-.25l-1.67-3.72h-8l-1.65,3.72a.41.41,0,0,1-.38.25h-.9A.4.4,0,0,1,201.24,32.87Zm10.7-4.78c-1.1-2.46-2.19-4.94-3.29-7.39h-.18l-3.29,7.39Z"/><path class="cls-1" d="M218.35,18.11a.43.43,0,0,1,.43-.43h.88a.44.44,0,0,1,.43.43V32h6.49a.43.43,0,0,1,.43.43V33a.43.43,0,0,1-.43.43h-7.8a.43.43,0,0,1-.43-.43Z"/><path class="cls-1" d="M37.82,1.56a24.12,24.12,0,0,0-5.29.6h0C26.06-.82,19.7-.72,15,2.47A14.63,14.63,0,0,0,9.78,8.95H9.72V9c-3.58-.19-6.36.76-8,2.79C-.67,14.6-.55,19.1,2,24.43c2.44,5.08,6.85,10.4,12.4,15a48.19,48.19,0,0,0,16,9h0l.42.12H31a24,24,0,1,0,6.83-47Zm-4,3.59c.31.18.61.38.92.57s.51.32.76.49.6.44.9.66.49.35.72.54.59.49.89.74.46.38.69.58.58.55.87.83.43.4.64.61.58.62.87.93.38.4.57.62.61.73.91,1.11c.15.18.3.36.45.55q.65.85,1.26,1.75t1.31,2.09c.14.24.26.48.39.72.26.47.52.94.75,1.41.14.28.26.57.39.86s.4.86.57,1.29.23.61.35.92.31.82.45,1.23.19.63.29.95.24.8.34,1.2.15.64.22,1,.17.78.23,1.17.1.63.14.95.1.76.13,1.14,0,.62.07.93,0,.74,0,1.11,0,.61,0,.91,0,.71-.06,1.07-.05.59-.09.88-.1.69-.16,1-.1.56-.16.83-.16.65-.25,1-.15.53-.23.78-.23.62-.35.92-.19.49-.3.72-.3.58-.46.87-.24.44-.37.65-.38.55-.58.81-.27.39-.42.57-.48.52-.73.77-.28.31-.44.45l0,0v0c0-.06,0-.12,0-.18A8.38,8.38,0,0,0,45.53,43c0-.14,0-.28,0-.42a10.25,10.25,0,0,0,0-1c0-.14,0-.28,0-.42a12.84,12.84,0,0,0-.14-1.5l0-.13c-.08-.48-.19-1-.32-1.47,0-.17-.1-.34-.15-.51q-.18-.61-.41-1.23c-.06-.17-.12-.34-.19-.51-.23-.58-.47-1.16-.76-1.77-2.44-5.08-6.85-10.4-12.4-15-.91-.75-1.83-1.46-2.77-2.14-.31-.23-.63-.43-.95-.65-.63-.44-1.26-.87-1.89-1.28-.38-.24-.75-.46-1.13-.68-.58-.35-1.16-.69-1.74-1-.4-.22-.8-.42-1.21-.63s-.69-.37-1-.54l.26-.34.53-.62q.36-.42.75-.81l.57-.57c.27-.26.54-.5.82-.74L24,8.47c.3-.24.6-.46.91-.69l.61-.44c.34-.23.69-.44,1-.65l.56-.34c.49-.27,1-.52,1.5-.75l.2-.1c.58-.26,1.17-.49,1.77-.7l.54-.17c.36-.11.73-.22,1.1-.32l.75.4C33.3,4.86,33.56,5,33.82,5.15ZM35,47.32a22.47,22.47,0,0,1-3.42-.69l-.11,0a23.1,23.1,0,0,1-3.37-1.31l-.05,0A21.86,21.86,0,0,1,15.85,25.57c0-.55,0-1.09.06-1.63,0-.18,0-.36.06-.54,0-.36.07-.71.12-1.07s.08-.43.11-.64.11-.63.18-.94.11-.45.17-.67.15-.59.24-.88.15-.45.22-.67.19-.56.3-.84.18-.45.28-.67.23-.54.36-.81.21-.43.32-.65.28-.53.42-.79l.37-.63.23-.36,1.21.59c.39.2.78.39,1.17.6.57.31,1.13.65,1.7,1,.37.22.73.42,1.1.66.63.4,1.24.83,1.86,1.26.3.21.6.4.9.62.91.66,1.81,1.36,2.7,2.09C35.26,25,39.47,30,41.79,34.87a18.85,18.85,0,0,1,1.61,4.73c.44,2.41.11,4.41-1,5.75A5.77,5.77,0,0,1,39,47.23a15.09,15.09,0,0,1-3.86.09ZM14.91,32.87l-.14-.25c-.24-.4-.47-.79-.68-1.2l-.27-.51c-.17-.32-.33-.64-.49-1l-.27-.59c-.14-.3-.27-.6-.4-.9l-.25-.62c-.12-.29-.23-.59-.34-.88l-.22-.63q-.15-.44-.29-.88l-.19-.63c-.09-.3-.17-.6-.25-.9s-.11-.41-.15-.61-.14-.62-.2-.94-.08-.38-.11-.56c-.06-.35-.11-.69-.16-1,0-.15,0-.3-.07-.45a25.29,25.29,0,0,1-.21-2.91c0-.15,0-.3,0-.45,0-.32,0-.64,0-1s0-.36,0-.53,0-.57.08-.85.05-.37.08-.56.08-.53.13-.78.07-.37.12-.56.12-.5.18-.74.1-.36.15-.54l.09-.27.77.11.49.09c.6.12,1.2.27,1.83.44l.23.07c.55.16,1.12.35,1.69.55l.61.23.68.28-.14.25c-.13.22-.25.43-.38.65s-.32.58-.48.88-.22.45-.33.68-.27.6-.4.91-.19.47-.28.7-.23.62-.33.93-.16.47-.23.71-.18.65-.27,1-.12.47-.18.71-.14.69-.2,1-.08.45-.12.67c-.06.39-.09.78-.13,1.16,0,.19,0,.38-.06.58,0,.58-.07,1.17-.07,1.76s0,1.21.07,1.81c0,.2,0,.39.06.59,0,.4.08.79.14,1.18,0,.23.08.46.12.69s.13.7.2,1,.12.48.18.72.17.65.27,1c0,.1.05.21.08.31ZM16.13,4.16c3.57-2.42,8.29-2.77,13.24-1.08-.34.13-.67.27-1,.42l-.45.19q-.9.41-1.76.88l-.39.23c-.44.26-.88.53-1.3.81L23.94,6q-.56.4-1.1.83l-.5.4q-.65.54-1.25,1.14l-.22.2c-.47.47-.91,1-1.34,1.46l-.36.44c-.2.24-.4.48-.59.73h0c-.43-.18-.84-.33-1.26-.49l-.38-.15c-.69-.25-1.36-.47-2-.66l-.53-.14q-.75-.2-1.47-.35l-.6-.12-.44-.09A12.47,12.47,0,0,1,16.13,4.16Zm-.42,33.66c-5.33-4.39-9.54-9.47-11.86-14.28C1.69,19,1.47,15.22,3.25,13.06,4.6,11.42,6.83,11,8.83,11H9L9,11c-.05.17-.09.35-.14.52s-.16.6-.23.91-.07.4-.11.6-.11.58-.15.88-.05.43-.07.65-.07.58-.09.87,0,.45,0,.68,0,.58,0,.87,0,.47,0,.7,0,.58,0,.87,0,.48,0,.72,0,.59.08.88.06.49.09.73.09.59.14.89.09.49.13.74.12.59.19.89.11.5.18.74.16.6.24.9.14.5.22.74.19.6.3.9.17.49.26.74.23.61.35.91.19.48.29.72.27.62.41.93.21.47.32.7.32.64.49,1,.22.43.33.64.4.7.6,1.05l.31.53q.48.79,1,1.56c.57.85,1.19,1.66,1.83,2.45l.23.3Zm31.11,7.79c.3-.28.57-.59.84-.9.12-.13.25-.25.36-.39a14.8,14.8,0,0,0,1.11-1.53c.07-.11.13-.23.19-.35.26-.43.51-.87.73-1.33.1-.21.18-.44.27-.65.16-.38.33-.76.46-1.16s.16-.52.23-.78.23-.76.32-1.15.11-.57.17-.86.15-.78.2-1.17.07-.61.09-.92.07-.8.09-1.2,0-.64,0-1,0-.82,0-1.23,0-.66-.06-1-.08-.84-.13-1.26-.09-.67-.14-1-.15-.86-.24-1.29-.14-.67-.22-1-.23-.88-.35-1.32-.19-.67-.3-1-.31-.9-.48-1.35-.23-.65-.36-1-.4-.94-.61-1.4c-.14-.31-.27-.61-.42-.92-.25-.51-.53-1-.81-1.53-.14-.25-.26-.51-.41-.76-.44-.76-.91-1.51-1.41-2.25-.4-.59-.82-1.17-1.25-1.73l-.42-.53c-.3-.38-.61-.76-.93-1.13l-.5-.57q-.47-.52-.95-1l-.51-.52c-.36-.36-.73-.71-1.11-1.05L39.87,7q-.77-.68-1.57-1.31L38,5.52c-.44-.34-.89-.67-1.35-1l-.54-.36-.69-.46A22,22,0,0,1,46.82,45.61Z"/></g></g></svg>