<svg xmlns="http://www.w3.org/2000/svg" viewBox="0 0 16.11 16.11"><defs><style>.cls-1{fill:#929497;}</style></defs><title>search</title><g id="Layer_2" data-name="Layer 2"><g id="header"><path class="cls-1" d="M14.17,1.94A6.39,6.39,0,0,0,9.51,0,6.39,6.39,0,0,0,4.84,1.94,6.38,6.38,0,0,0,2.91,6.6a6.5,6.5,0,0,0,1.23,3.84L.36,14.22A1,1,0,0,0,0,15a1.09,1.09,0,0,0,1.1,1.1,1,1,0,0,0,.77-.33L5.66,12A6.5,6.5,0,0,0,9.51,13.2a6.39,6.39,0,0,0,4.67-1.94A6.39,6.39,0,0,0,16.11,6.6,6.39,6.39,0,0,0,14.17,1.94ZM9.51,11.39A4.57,4.57,0,0,1,6.12,10,4.57,4.57,0,0,1,4.72,6.6a4.57,4.57,0,0,1,1.4-3.39,4.57,4.57,0,0,1,3.38-1.4,4.57,4.57,0,0,1,3.38,1.4,4.58,4.58,0,0,1,1.4,3.39A4.57,4.57,0,0,1,12.89,10,4.57,4.57,0,0,1,9.51,11.39Z"/></g></g></svg>